<svg version="1.2" xmlns="http://www.w3.org/2000/svg" viewBox="0 0 2271 1134" width="2271" height="1134"><style>.a{fill:#d11747}.b{fill:#e90f90}.c{fill:#f7c80a}.d{fill:#3d54ac}.e{fill:#5abceb}</style><path class="a" d="m1617 481.3c-24.5 24.2-49 48.5-73.8 72.6-3.7 3.7-8.6 6.4-12.9 9.5q-55.8-55.9-111.6-111.7 42.3-42.3 84.5-84.6 56.9 57.1 113.8 114.2z"/><path class="b" d="m1690.1 553.9c-24.4-24.2-48.7-48.4-73.1-72.6-24.5 24.2-49 48.5-73.8 72.6-3.8 3.7-8.6 6.4-12.9 9.5-1.1 2.2-1.8 4.8-3.4 6.4-35 35.2-70.1 70.4-105.3 105.5-1.1 1.2-2.7 1.9-4.1 2.9-3 3.4-5.8 7-9 10.3-23.6 24.1-47.4 48.2-71.1 72.3 3.6 1.7 7.1 4.6 10.6 6-3.5-1.4-7-4.3-10.5-6q-2.2 1.2-4.3 2.4c-34 34.4-68 68.8-101.9 103.2-4.1 4.2-8 8.6-12 12.9q1.8 0.4 3.7 0.7-1.9-0.3-3.7-0.7c-27.8 27.4-55.7 54.7-84.2 82.8-19.6-19-38.4-37.5-57.3-55.9-1.7 0.4-3.5 1-5.3 1.5q-1.8 0.6-3.5 1 1.7-0.4 3.5-1c1.8-0.5 3.6-1.1 5.3-1.5-15.8-15.8-31.6-31.4-47.3-47.3-31.1-31.5-62.1-63-93.2-94.6q-8.8 8-17.5 16-33.6 34.5-67.1 69.1 31.5 31.3 63.1 62.6 39.9 40.1 79.7 80.1 36 36 71.9 71.9c23 22.1 46 44.2 66.1 63.5 22.3-20.5 45.5-41.8 68.7-63.1q39.3-39.3 78.6-78.5 50.6-50.7 101.1-101.4 18.6-17.8 37.1-35.5 37.5-38.3 75-76.7 5.1-3.7 10.2-7.4c12.2-13.7 23.9-27.9 36.8-41 36.3-36.9 73-73.5 109.8-109.9 16.1-15.9 33-31 49.5-46.5q0-2.2 0-4.4c-3.4-3.1-6.9-6-10.2-9.2z"/><path class="b" d="m851.9 452.7q42.7-42.7 85.4-85.4c0.7-1 1.3-2.1 2.2-3 62.5-62.8 125.1-125.5 187.5-188.5 6.3-6.3 10.3-6.1 16.5 0.2 29.2 29.8 59 59.1 88.2 88.9 5.3 5.3 9 12.1 12.5 17 31.3-30.9 59-58.4 86.9-86-65.7-64.7-132-129.9-194.1-191q-281.7 278.6-568.5 562.2c66.6 65.9 132.6 131.2 198.5 196.4q12.8-12 25.6-24 29.7-30.7 59.4-61.5c-37.1-37.3-74.3-74.6-111.7-112.3 37.2-37.7 74.4-75.4 111.6-113z"/><path class="c" d="m1503.2 367c62.8-63.1 125.7-126.1 188.2-189.5 8-8.2 12.3-7.4 20.1 0.2 34.7 33.8 70.2 66.9 104.2 99.2 25.1-25.1 53.3-53.3 81.6-81.6-65.5-64.8-131.7-130.3-196.6-194.4-13 12.3-27.4 25.2-41 38.9-110.1 110.1-220.1 220.3-330 330.5-64.9 65.1-129.6 130.4-194.4 195.5v0.6c32.9 32.5 65.8 65.1 98.7 97.7 33.1 33 66.2 66.1 99.2 99.1q2.2-1.2 4.3-2.4 35.6-36.1 71.1-72.3c3.1-3.3 5.9-6.9 8.9-10.3-37.7-37.3-75.4-74.5-112.9-111.6 38.9-39.2 76.5-77.1 114.1-115q42.3-42.3 84.5-84.6z"/><path class="c" d="m1900.5 365.3c63.1 62.8 126.1 125.7 189.5 188.2 8.2 8 7.4 12.3-0.2 20.1-33.8 34.7-66.9 70.2-99.2 104.2 25.1 25.1 53.3 53.3 81.6 81.6 64.8-65.5 130.3-131.7 194.4-196.6-12.3-13-25.2-27.4-38.9-41-110.1-110.1-220.3-220.1-330.4-330-65.1-64.9-130.4-129.7-195.5-194.5h-0.6c-32.5 32.9-65.1 65.8-97.7 98.7-33 33.1-66.1 66.2-99.1 99.2q1.2 2.2 2.4 4.3 36.1 35.6 72.3 71.1c3.3 3.1 6.9 5.9 10.3 8.9 37.3-37.7 74.5-75.4 111.6-112.9 39.2 38.9 77.1 76.5 115 114.2q42.2 42.3 84.5 84.5z"/><path class="c" d="m2182.6 481.1c-24.5 24.2-48.9 48.4-73.6 72.5-3.8 3.7-8.5 6.5-12.7 9.7-0.8 1.9-1.1 4.2-2.4 5.5-36.2 36.2-72.6 72.3-108.9 108.4q-42.9 43-85.8 86.1-4.9 5.8-9.8 11.6c-40.1 40-80.3 79.9-120.4 120-15.4 15.4-30.5 31.2-45.7 46.8-7.8 7-15.5 14-22.6 20.4-5.5-5.2-10.3-9.7-15.2-14.3-28-28.4-56-56.9-84.1-85.3-32.3-32.6-64.8-65.1-97.2-97.6q-5.1 3.7-10.2 7.4-37.5 38.4-75 76.7 54 54.1 107.9 108.2c59.1 57.4 118.2 114.8 177.4 172.3 9.6-9.4 21.3-20.9 32.9-32.6 47.8-48.2 95.6-96.4 143.4-144.7 14.2-14 28.4-28.2 42.6-42.2 20.1-19.8 40.3-39.6 60.4-59.4 3-3.4 5.7-6.9 8.8-10.1 19.4-19.8 38.9-39.6 58.4-59.3q9-8 17.9-16.1c2.8-3.1 5.4-6.3 8.4-9.3 59.2-59.4 118.5-118.8 178-178 4-4 10.1-6 13.9-8.2-31.7-32.4-59-60.4-86.4-88.5z"/><path class="d" d="m853.3 451.3q42-42 84-84c37 37.4 76.4 76.8 113.3 114.2q-15 15.4-30.1 30.9c-4 3.5-8 7-11.9 10.6-13.8 13-27.5 26-41.2 39-4.1-3.3-8.6-6.2-12.3-9.9-33.2-32.8-68.8-67.9-101.9-100.8z"/><path class="e" d="m1135.3 565.8q-42.7-42.3-85.4-84.6-15.3 15.6-30.6 31.3c0.6 4 1.6 8 2 12.1-0.4-4.1-1.4-8.1-2-12.1-4 3.6-8.2 7.1-12.1 10.9-14 13.1-27.9 26.4-41.8 39.6-3.2 3.9-6 8-9.5 11.6-13.6 14.2-27.5 28.2-41.2 42.3q-31.4 30.5-62.8 61.1-29.6 30.7-59.3 61.5-12.8 12-25.6 24c-4 4.3-7.9 8.7-12.1 12.9-38.5 39-77 77.9-115.5 116.8-23.4 22.9-46.7 45.8-67.6 66.3-133.8-132-266.7-263.1-400.3-395 133.6-132.1 266.2-263.3 401.8-397.4 17 18.2 34.7 37.4 52.5 56.6 19 18.8 38 37.5 55.3 54.6 28.4-27.9 56.2-55.2 83.5-82-41.6-42.3-83.5-84.8-125.4-127.3q-34.3-34.4-68.5-68.7-4.2 2.6-8.5 5.1c-4.3 4-8.7 7.9-12.9 12.1-177.9 178.3-355.8 356.7-533.8 535-4.3 4.4-9.2 8.1-15.5 13.5q287.1 284 568.7 562.3c30-28.8 61.6-59.1 93.2-89.4q68.4-68.5 136.7-137 27-26.3 54.1-52.5 33.5-34.6 67.1-69.1 8.8-8 17.6-16c3.7-4 7.4-8 11.2-11.9 25.3-25.9 50.7-51.7 76-77.6 33.4-33.2 66.8-66.4 100.3-99.5 3.3-3.2 7-6 10.4-8.9z"/></svg>